<?xml version="1.0" encoding="UTF-8"?>
<svg id="Ebene_2" data-name="Ebene 2" xmlns="http://www.w3.org/2000/svg" viewBox="0 0 1800 1800">
  <defs>
    <style>
      .cls-1 {
        fill: #f3b736;
      }

      .cls-2, .cls-3 {
        fill: #fff;
      }

      .cls-4 {
        fill: #1e0149;
      }

      .cls-3 {
        stroke: #f3b736;
        stroke-miterlimit: 10;
        stroke-width: 22.3px;
      }
    </style>
  </defs>
  <g id="Ebene_1-2" data-name="Ebene 1">
    <g>
      <rect class="cls-4" width="1800" height="1800"/>
      <circle class="cls-3" cx="900" cy="900" r="807.43"/>
    </g>
    <g>
      <path class="cls-4" d="m1124.03,879.25c-2.78-46.5-14.95-91.88-35.47-133.32,15.43-10.02,30.14-21.33,44.01-33.9,37.56,46.36,61.54,104.14,65.89,167.22h-74.43Zm-78.16,240.99c6.35-7.73,12.34-15.72,17.99-23.94,12.22,8.07,23.91,17.12,34.97,27.07-37.39,33.32-83.13,57.4-133.68,68.68,30.27-19.48,57.59-43.66,80.72-71.8Zm-310.6-23.35c4.73,6.89,9.72,13.62,14.98,20.16,23.44,29.25,51.5,54.4,82.7,74.57-49.78-11.44-94.87-35.36-131.78-68.26,10.8-9.71,22.19-18.55,34.1-26.47Zm18.03-417.69c-6.37,7.73-12.39,15.71-18.04,23.93-11.91-7.94-23.3-16.76-34.09-26.46,36.91-32.89,81.95-56.8,131.73-68.25-29.79,19.25-56.73,43.07-79.6,70.78Zm292.09-.01c-23.02-27.89-50.21-51.87-80.26-71.21,50.55,11.26,96.3,35.36,133.68,68.68-11.06,9.94-22.75,18.99-34.99,27.07-5.74-8.43-11.9-16.62-18.44-24.54Zm-120.98,72.4v-111.19c38.2,21.72,70.92,51.57,96.09,86.96-30.13,13.33-62.48,21.53-96.09,24.22Zm0,127.66v-78.69c42.53-2.9,83.45-13.41,121.24-30.88,16.45,33.71,26.69,70.79,29.41,109.57h-150.65Zm0,120.2v-71.35h150.05c-3.45,36.09-13.41,70.63-28.86,102.23-37.77-17.46-78.66-27.96-121.19-30.88Zm0,160.13v-111.14c33.59,2.67,65.92,10.88,96.02,24.18-25.14,35.38-57.86,65.23-96.02,86.96Zm-48.84-111.14v112.16c-39.01-21.66-72.22-51.59-97.59-87.28,30.56-13.71,63.44-22.17,97.59-24.88Zm0-120.34v71.35c-43.07,2.96-84.47,13.7-122.67,31.59-15.38-31.69-25.31-66.44-28.69-102.94h151.36Zm0-127.54v78.69h-151.95c2.71-38.97,13.07-76.22,29.66-110.07,38.09,17.76,79.34,28.45,122.29,31.38Zm0-160.9v111.93c-33.95-2.71-66.66-11.08-97.07-24.65,25.39-35.62,58.47-65.59,97.07-87.28Zm-208.15,72.37c13.57,12.31,27.96,23.41,43.03,33.26-20.68,41.62-32.97,87.24-35.78,133.96h-73.14c4.35-63.09,28.35-120.86,65.89-167.22Zm-65.28,216.07h73.05c3.61,44.12,15.66,87.17,35.25,126.62-15.07,9.88-29.45,20.99-43.03,33.27-36.09-44.56-59.65-99.67-65.28-159.89Zm530.42,159.89c-13.87-12.56-28.57-23.88-44.01-33.91,19.42-39.27,31.36-82.07,34.94-125.98h74.36c-5.65,60.22-29.21,115.33-65.3,159.89Zm-232.57-536.02c-191.89,0-348.04,156.14-348.04,348.04s156.14,348.04,348.04,348.04,348.04-156.12,348.04-348.04-156.12-348.04-348.04-348.04Z"/>
      <g>
        <path class="cls-1" d="m941.49,527.04s-12.21-5.62-22.04-10.14c-9.82-4.52-12.31-10.05-5.5-12.26,6.8-2.23,22.49-3.55,34.86-2.93,5.62.28,22.47,1.1,22.47,1.1,12.37.61,13.21,4.6,1.87,8.86l-31.66,15.38Z"/>
        <path class="cls-1" d="m823.68,572.01s-12.3,4.88-13.68,10.33c-1.33,5.25-5.47,70.91,272.39-84.12,16.5-9.21,8.07-19.12-14.55-21.68-68.25-7.7-51.48-2.47-244.16,95.47Z"/>
        <path class="cls-1" d="m884.82,540.45s-61.57-18.31-81.83-25.15c-12.77-4.3-19.3,9.89-19.3,9.89,0,0,23.82,58.43,26.31,57.15l74.32-37.69c2.5-1.28,2.72-3.17.49-4.2Z"/>
        <path class="cls-1" d="m943.4,547.21c-12.14,5.42-17.76,8.27-24.56,19.22l-49.86,74.99c-6.8,10.95-2.05,16.54,10.56,12.43,12.61-4.12,29.77-15.58,38.13-25.46l79.47-93.96c8.36-9.88,5.27-13.54-6.88-8.12l-46.87,20.9Z"/>
        <path class="cls-2" d="m1044.94,477.62c-2.17,3.62-15.54,14.77-15.54,14.77,0,0,2.6,4.12,9.85,2.06,6.27-1.77,12.48-7.86,16.01-14.52l-10.32-2.3Z"/>
        <path class="cls-1" d="m885.91,553.22c2.52,0,4.57,2.04,4.57,4.57s-2.04,4.57-4.57,4.57-4.57-2.04-4.57-4.57,2.04-4.57,4.57-4.57Z"/>
        <path class="cls-1" d="m903.32,544.24c2.52,0,4.57,2.05,4.57,4.57s-2.05,4.57-4.57,4.57-4.57-2.05-4.57-4.57,2.05-4.57,4.57-4.57Z"/>
        <path class="cls-1" d="m920.73,535.26c2.53,0,4.57,2.05,4.57,4.57s-2.05,4.57-4.57,4.57-4.57-2.05-4.57-4.57,2.05-4.57,4.57-4.57Z"/>
        <path class="cls-1" d="m938.13,526.28c2.53,0,4.57,2.05,4.57,4.57s-2.05,4.57-4.57,4.57-4.57-2.05-4.57-4.57,2.05-4.57,4.57-4.57Z"/>
        <path class="cls-1" d="m955.54,517.3c2.52,0,4.57,2.05,4.57,4.57s-2.05,4.57-4.57,4.57-4.57-2.05-4.57-4.57,2.05-4.57,4.57-4.57Z"/>
        <path class="cls-1" d="m972.95,508.33c2.52,0,4.57,2.04,4.57,4.57s-2.04,4.57-4.57,4.57-4.57-2.04-4.57-4.57,2.04-4.57,4.57-4.57Z"/>
        <path class="cls-1" d="m990.36,499.35c2.53,0,4.57,2.05,4.57,4.57s-2.05,4.57-4.57,4.57-4.57-2.05-4.57-4.57,2.05-4.57,4.57-4.57Z"/>
      </g>
      <g id="_6wEeGr.tif" data-name="6wEeGr.tif">
        <g>
          <path class="cls-1" d="m793.01,1261.66h-309.04c-5.06-2.22-5.65-5.3-1.79-9.36,1.46-1.53,3.1-2.85,4.89-3.95,2.8-1.73,4.78-4.16,6.3-7.02,3.07-5.81,4.24-12.11,4.59-18.57.74-13.6-1.77-26.72-6.3-39.5-7.35-20.73-19.1-38.74-34.07-54.72-4.2-4.48-7.68-9.32-9.57-15.21v-10.32c.28-.99.98-1.58,1.84-2.08,3.01-1.72,6.24-2.9,9.57-3.79,11.34-3.05,22.96-3.88,34.62-4.14,14.85-.34,29.66.38,44.46,1.79,17.22,1.63,34.14,4.9,50.91,9.04,21.97,5.42,43.5,12.32,64.88,19.69,7.26,2.5,12.05,7.35,14.52,14.57,4.86,14.22,9.64,28.46,14.63,42.63,2.05,5.82,6.07,9.77,12.37,11.02,3.81.75,7.6,1.6,11.4,2.39,24.87,5.18,49.73,10.4,74.62,15.5,4.27.88,8.51.42,12.4-1.81,1.17-.67,2.44-1.05,3.75-1.37,3.08-.75,6.06-.13,9.08.42,3.5.64,4.07,1.18,4.05,4.73-.03,6.88-1.72,13.49-3.48,20.07-2.2,8.26-4.82,16.38-9.05,23.87-1.38,2.45-2.94,4.8-5.59,6.11Zm-228.27-104.86c1.03-.02,1.91.01,2.79-.23,5.02-1.4,6.75-7.57,3.38-12.19-2.07-2.84-5.03-4.27-8.39-4.86-5.45-.97-10.91-1.88-16.39-2.73-7.07-1.09-9.16.39-10.68,7.36-.03.12-.06.25-.08.37-.88,4.86,2.24,9.76,6.86,10.26,7.53.82,15.09,1.36,22.49,2.01Z"/>
          <path class="cls-1" d="m538.5,1065.56c8.92,0,17.85.05,26.77-.02,6.06-.05,11.86,1.48,17.69,2.8,5.53,1.25,11.02,2.64,16.54,3.96,2.11.5,2.34.27,1.78-1.74-4.07-14.56-16.5-23.85-31.61-23.21-12.15.51-24.28,1.43-36.42,2.16-6.74.41-13.47.82-20.21,1.21-1.17.07-2.38.08-1.53-1.69,2.85-5.98,5.74-11.93,9.66-17.33,1.79-2.47,4.06-3.51,7.09-3.79,10.2-.95,20.38-2.2,30.57-3.2,7.4-.73,14.77-2.1,22.26-.97,3.04.46,5.95,1.18,8.7,2.68,13.36,7.31,26.73,14.6,40.16,21.78,6.86,3.67,10.27,9.55,11.28,16.94,1.88,13.87,3.55,27.76,5.31,41.65.14,1.07.25,2.15.41,3.22.22,1.44-.32,1.88-1.7,1.43-3.27-1.08-6.53-2.15-9.81-3.2-21.79-6.95-43.76-13.27-66.19-17.83-12.8-2.6-25.66-4.7-38.7-5.71-10.23-.8-20.46-1.41-30.71-1.45-2.45-.01-2.51-.1-1.48-2.3,1.89-4.03,3.61-8.15,5.82-12.04,1.37-2.4,3.15-3.47,6.03-3.42,9.43.15,18.86.06,28.3.06Z"/>
          <path class="cls-1" d="m713.9,1168c0,4.52.03,9.04,0,13.57-.03,3.92-2.11,5.54-5.97,4.69-3.66-.81-7.22-1.7-10.57-3.66-4.49-2.62-7.54-6.19-9.23-11-2.58-7.33-5.12-14.67-7.59-22.03-.92-2.73.06-4.54,2.8-5.55,3.73-1.37,7.46-1.84,11.39-.57,4.54,1.46,9.19,2.58,13.78,3.9,3.8,1.09,5.35,3.13,5.38,7.08.04,4.52,0,9.04,0,13.57Z"/>
          <path class="cls-1" d="m742.62,1175.14c0,4.27.03,8.53,0,12.8-.03,3.48-1.99,5.17-5.43,4.56-3.7-.65-7.38-1.41-11.04-2.23-2.93-.66-4.75-2.88-4.77-5.9-.05-9.43-.05-18.85,0-28.28.01-2.87,1.68-4.18,4.52-3.54,3.97.9,7.93,1.89,11.87,2.94,3.12.83,4.81,3.02,4.85,6.27.06,4.46.01,8.92.02,13.38Z"/>
          <path class="cls-1" d="m767.1,1180.79c0,4.14.02,8.28,0,12.42-.02,3.82-1.96,5.42-5.77,4.73-2.5-.45-5-.95-7.48-1.52-3.07-.7-4.91-2.86-4.93-5.95-.05-9.04-.05-18.08,0-27.13.01-2.63,1.43-3.9,4.06-3.5,3.27.5,6.52,1.14,9.73,1.94,2.77.69,4.35,3.06,4.39,6.21.04,4.27.01,8.53.01,12.8Z"/>
          <path class="cls-1" d="m773.89,1181.73c0-4.14-.05-8.27.01-12.41.07-4.21,1.63-5.35,5.7-4.3,2.34.6,4.68,1.22,7.01,1.86,3.98,1.09,5.48,2.94,5.6,7.09.09,3.05.03,6.11.03,9.16,0,5.09-.04,10.18.01,15.27.02,1.85-.44,2.88-2.58,3.14-3.58.44-7.06.5-10.56-.55-3.72-1.11-5.11-2.57-5.19-6.48-.09-4.26-.02-8.53-.02-12.79h0Z"/>
        </g>
      </g>
      <g>
        <polygon class="cls-1" points="1021.61 1131.2 1021.61 1214.2 1221.8 1209.64 1221.8 1091.98 1276.19 1091.98 1276.19 1088.79 1220.66 1087.65 1021.61 1131.2"/>
        <path class="cls-1" d="m1279.46,1109.31c23.67,6.08,23.17,30.4,23.17,30.4,25.18,2.43,31.22,41.35,31.22,41.35,38.27,4.26,36.26,60.81,36.26,60.81h-348.5v-20.67l207.99-4.26v-114.93h48.85l1.01,7.3Z"/>
        <ellipse class="cls-1" cx="1298.68" cy="1241.87" rx="13.06" ry="17.49"/>
        <ellipse class="cls-1" cx="1300.29" cy="1241.87" rx="13.06" ry="17.49"/>
        <ellipse class="cls-1" cx="1348.38" cy="1239.77" rx="17.49" ry="13.06" transform="translate(32.01 2513.48) rotate(-86.65)"/>
        <ellipse class="cls-1" cx="1248.82" cy="1245.06" rx="13.06" ry="17.49"/>
        <ellipse class="cls-1" cx="1250.11" cy="1245.06" rx="13.06" ry="17.49"/>
        <ellipse class="cls-1" cx="1231.99" cy="1245.06" rx="13.06" ry="17.49"/>
        <ellipse class="cls-1" cx="1234.57" cy="1245.06" rx="13.06" ry="17.49"/>
        <ellipse class="cls-1" cx="1121.43" cy="1247.33" rx="11.36" ry="15.22"/>
        <ellipse class="cls-1" cx="1123.26" cy="1247.33" rx="11.36" ry="15.22"/>
        <ellipse class="cls-1" cx="1106.78" cy="1247.33" rx="11.36" ry="15.22"/>
        <ellipse class="cls-1" cx="1108.94" cy="1247.33" rx="11.36" ry="15.22"/>
        <ellipse class="cls-1" cx="1073.11" cy="1247.33" rx="11.36" ry="15.22"/>
        <ellipse class="cls-1" cx="1071.02" cy="1247.33" rx="11.36" ry="15.22"/>
        <ellipse class="cls-1" cx="1047.11" cy="1247.33" rx="11.36" ry="15.22"/>
        <ellipse class="cls-1" cx="1044.69" cy="1247.33" rx="11.36" ry="15.22"/>
        <ellipse class="cls-1" cx="1167.19" cy="1245.06" rx="13.06" ry="17.49"/>
        <ellipse class="cls-1" cx="1169.76" cy="1245.06" rx="13.06" ry="17.49"/>
        <ellipse class="cls-1" cx="1195.87" cy="1245.06" rx="13.06" ry="17.49"/>
        <ellipse class="cls-1" cx="1198.88" cy="1245.06" rx="13.06" ry="17.49"/>
        <ellipse class="cls-1" cx="1351.18" cy="1238.99" rx="13.06" ry="17.49"/>
      </g>
    </g>
  </g>
</svg>